<svg width="22" height="21" viewBox="0 0 22 21" fill="none" xmlns="http://www.w3.org/2000/svg">
<g filter="url(#filter0_b_1_57)">
<path d="M14.6263 18C14.6263 17.1364 15.3259 16.4369 16.1895 16.4369C17.0531 16.4369 17.7527 17.1364 17.7527 18C17.7527 18.8637 17.0531 19.5632 16.1895 19.5632C15.3259 19.5632 14.6263 18.8637 14.6263 18Z" stroke="white" stroke-width="2" stroke-linecap="round" stroke-linejoin="round"/>
</g>
<g filter="url(#filter1_b_1_57)">
<path d="M6.28955 18C6.28955 17.1364 6.98906 16.4369 7.85271 16.4369C8.71635 16.4369 9.41587 17.1364 9.41587 18C9.41587 18.8637 8.71635 19.5632 7.85271 19.5632C6.98906 19.5632 6.28955 18.8637 6.28955 18Z" stroke="white" stroke-width="2" stroke-linecap="round" stroke-linejoin="round"/>
</g>
<g filter="url(#filter2_b_1_57)">
<path d="M1.07898 1.84738H3.73635L5.96677 13.2163C6.21479 14.4835 7.30519 15.3947 8.57187 15.3947H18.7948" stroke="white" stroke-width="2" stroke-linecap="round" stroke-linejoin="round"/>
</g>
<g filter="url(#filter3_b_1_57)">
<path d="M4.20532 3.93158H20.879L20.1556 9.62877C20.0398 10.5415 19.2515 11.2263 18.3168 11.2263H5.5948" stroke="white" stroke-width="2" stroke-linecap="round" stroke-linejoin="round"/>
</g>
<defs>
<filter id="filter0_b_1_57" x="4.94213" y="6.75265" width="22.4948" height="22.4947" filterUnits="userSpaceOnUse" color-interpolation-filters="sRGB">
<feFlood flood-opacity="0" result="BackgroundImageFix"/>
<feGaussianBlur in="BackgroundImageFix" stdDeviation="4.34211"/>
<feComposite in2="SourceAlpha" operator="in" result="effect1_backgroundBlur_1_57"/>
<feBlend mode="normal" in="SourceGraphic" in2="effect1_backgroundBlur_1_57" result="shape"/>
</filter>
<filter id="filter1_b_1_57" x="-3.39466" y="6.75265" width="22.4948" height="22.4947" filterUnits="userSpaceOnUse" color-interpolation-filters="sRGB">
<feFlood flood-opacity="0" result="BackgroundImageFix"/>
<feGaussianBlur in="BackgroundImageFix" stdDeviation="4.34211"/>
<feComposite in2="SourceAlpha" operator="in" result="effect1_backgroundBlur_1_57"/>
<feBlend mode="normal" in="SourceGraphic" in2="effect1_backgroundBlur_1_57" result="shape"/>
</filter>
<filter id="filter2_b_1_57" x="-8.60523" y="-7.83683" width="37.0842" height="32.9158" filterUnits="userSpaceOnUse" color-interpolation-filters="sRGB">
<feFlood flood-opacity="0" result="BackgroundImageFix"/>
<feGaussianBlur in="BackgroundImageFix" stdDeviation="4.34211"/>
<feComposite in2="SourceAlpha" operator="in" result="effect1_backgroundBlur_1_57"/>
<feBlend mode="normal" in="SourceGraphic" in2="effect1_backgroundBlur_1_57" result="shape"/>
</filter>
<filter id="filter3_b_1_57" x="-5.47889" y="-5.75263" width="36.0421" height="26.6632" filterUnits="userSpaceOnUse" color-interpolation-filters="sRGB">
<feFlood flood-opacity="0" result="BackgroundImageFix"/>
<feGaussianBlur in="BackgroundImageFix" stdDeviation="4.34211"/>
<feComposite in2="SourceAlpha" operator="in" result="effect1_backgroundBlur_1_57"/>
<feBlend mode="normal" in="SourceGraphic" in2="effect1_backgroundBlur_1_57" result="shape"/>
</filter>
</defs>
</svg>
